<?xml version="1.0" encoding="utf-8"?>
<svg xmlns="http://www.w3.org/2000/svg" viewBox="16.287 6.612 17.816 35.217" width="48px" height="48px"><path d="M 29.991 13.502 L 33.417 13.502 C 33.796 13.502 34.103 13.159 34.103 12.737 L 34.103 7.579 C 34.103 7.178 33.826 6.844 33.469 6.816 C 32.379 6.729 30.249 6.612 28.717 6.612 C 24.51 6.612 21.769 9.429 21.769 14.55 L 21.769 19.627 L 16.972 19.627 C 16.594 19.627 16.287 19.97 16.287 20.393 L 16.287 25.752 C 16.287 26.174 16.594 26.517 16.972 26.517 L 21.769 26.517 L 21.769 41.064 C 21.769 41.486 22.076 41.829 22.454 41.829 L 27.25 41.829 C 27.629 41.829 27.936 41.486 27.936 41.064 L 27.936 26.517 L 32.884 26.517 C 33.234 26.517 33.527 26.224 33.565 25.836 L 34.098 20.477 C 34.144 20.024 33.826 19.627 33.417 19.627 L 27.936 19.627 L 27.936 15.799 C 27.936 14.531 28.856 13.502 29.991 13.502 Z" style="fill: rgb(255, 255, 255);" id="object-0" transform="matrix(0.9999999999999999, 0, 0, 0.9999999999999999, 0, -8.881784197001252e-16)"/></svg>